<svg xmlns="http://www.w3.org/2000/svg" viewBox="0 0 1280 720" role="img" aria-labelledby="title desc">
  <title id="title">Minh họa CPR</title>
  <desc id="desc">Một người đang ép tim ngoài lồng ngực cho nạn nhân.</desc>
  <defs>
    <linearGradient id="bg" x1="0" x2="1" y1="0" y2="1">
      <stop stop-color="#fff4e6"/>
      <stop offset="1" stop-color="#e7faf7"/>
    </linearGradient>
  </defs>
  <rect width="1280" height="720" fill="url(#bg)"/>
  <rect y="520" width="1280" height="200" fill="#f2d7b8"/>
  <ellipse cx="640" cy="552" rx="360" ry="52" fill="#d7b18b" opacity=".35"/>
  <rect x="398" y="438" width="455" height="78" rx="39" fill="#1f2937"/>
  <circle cx="844" cy="474" r="48" fill="#8b5e3c"/>
  <circle cx="872" cy="463" r="20" fill="#f2c19a"/>
  <circle cx="572" cy="258" r="58" fill="#f2c19a"/>
  <path d="M510 334c32-54 93-54 124 0l52 91H458z" fill="#0f766e"/>
  <rect x="533" y="356" width="74" height="162" rx="32" fill="#f2c19a" transform="rotate(17 570 437)"/>
  <rect x="610" y="362" width="74" height="160" rx="32" fill="#f2c19a" transform="rotate(-15 647 442)"/>
  <circle cx="594" cy="454" r="34" fill="#fff"/>
  <circle cx="650" cy="454" r="34" fill="#fff"/>
  <path d="M600 238c38-55 104-36 106 20-27-26-82-8-110 14-29 22-69 23-86-2 18-1 51-9 90-32z" fill="#f97316"/>
  <path d="M636 418v86" stroke="#c91f31" stroke-width="22" stroke-linecap="round"/>
  <path d="M592 461h88" stroke="#c91f31" stroke-width="22" stroke-linecap="round"/>
  <text x="70" y="92" fill="#941728" font-family="Arial, sans-serif" font-size="52" font-weight="700">CPR</text>
  <text x="70" y="148" fill="#17202a" font-family="Arial, sans-serif" font-size="30" font-weight="700">Ép tim ngoài lồng ngực</text>
</svg>
