<svg xmlns="http://www.w3.org/2000/svg" viewBox="0 0 1280 720" role="img" aria-labelledby="title desc">
  <title id="title">Minh họa Heimlich</title>
  <desc id="desc">Người hỗ trợ đứng sau nạn nhân để thực hiện thao tác Heimlich.</desc>
  <rect width="1280" height="720" fill="#fff7ed"/>
  <rect y="526" width="1280" height="194" fill="#f1c89b"/>
  <circle cx="560" cy="222" r="66" fill="#f6c39d"/>
  <circle cx="710" cy="204" r="62" fill="#f6c39d"/>
  <path d="M493 302h136c55 0 98 44 98 98v148H395V400c0-54 44-98 98-98z" fill="#0f766e"/>
  <path d="M650 284h126c52 0 94 42 94 94v170H556V378c0-52 42-94 94-94z" fill="#f97316"/>
  <path d="M807 390c-74 48-156 49-250 4" fill="none" stroke="#7c2d12" stroke-width="34" stroke-linecap="round"/>
  <path d="M626 418h102" stroke="#fff" stroke-width="24" stroke-linecap="round"/>
  <path d="M677 367v102" stroke="#fff" stroke-width="24" stroke-linecap="round"/>
  <path d="M505 198c36-70 126-66 150 2-50-24-87 25-150-2z" fill="#fb923c"/>
  <path d="M654 178c43-62 133-40 147 26-44-25-88 17-147-26z" fill="#ea580c"/>
  <path d="M866 214c42 12 72 52 72 98" stroke="#c91f31" stroke-width="18" stroke-linecap="round" fill="none"/>
  <path d="M909 197l38 33-47 17" fill="none" stroke="#c91f31" stroke-width="18" stroke-linecap="round" stroke-linejoin="round"/>
  <text x="72" y="94" fill="#941728" font-family="Arial, sans-serif" font-size="52" font-weight="700">Heimlich</text>
  <text x="72" y="150" fill="#17202a" font-family="Arial, sans-serif" font-size="30" font-weight="700">Xử trí hóc dị vật</text>
</svg>
